<mxfile host="app.diagrams.net" agent="Mozilla/5.0 (Windows NT 10.0; Win64; x64) AppleWebKit/537.36 (KHTML, like Gecko) Chrome/135.0.0.0 Safari/537.36 Edg/135.0.0.0" version="26.2.14" pages="2">
  <diagram name="Page-1" id="j3iNsj0hG_UOPCvZ1p_r">
    <mxGraphModel>
      <root>
        <mxCell id="0" />
        <mxCell id="1" parent="0" />
        <mxCell id="2" value="Security Setup" style="whiteSpace=wrap;strokeWidth=2;" vertex="1" parent="1">
          <mxGeometry x="2347" y="8" width="163" height="54" as="geometry" />
        </mxCell>
        <mxCell id="3" value="Firewalls" style="whiteSpace=wrap;strokeWidth=2;" vertex="1" parent="1">
          <mxGeometry x="743" y="112" width="124" height="54" as="geometry" />
        </mxCell>
        <mxCell id="4" value="VPNs" style="whiteSpace=wrap;strokeWidth=2;" vertex="1" parent="1">
          <mxGeometry x="2382" y="112" width="95" height="54" as="geometry" />
        </mxCell>
        <mxCell id="5" value="IDS/IPS" style="whiteSpace=wrap;strokeWidth=2;" vertex="1" parent="1">
          <mxGeometry x="4058" y="112" width="111" height="54" as="geometry" />
        </mxCell>
        <mxCell id="6" value="Types of Firewalls" style="whiteSpace=wrap;strokeWidth=2;" vertex="1" parent="1">
          <mxGeometry x="350" y="216" width="188" height="54" as="geometry" />
        </mxCell>
        <mxCell id="7" value="Packet Filtering" style="whiteSpace=wrap;strokeWidth=2;" vertex="1" parent="1">
          <mxGeometry x="8" y="320" width="173" height="54" as="geometry" />
        </mxCell>
        <mxCell id="8" value="Stateful Inspection" style="whiteSpace=wrap;strokeWidth=2;" vertex="1" parent="1">
          <mxGeometry x="231" y="320" width="195" height="54" as="geometry" />
        </mxCell>
        <mxCell id="9" value="Proxy Firewalls" style="whiteSpace=wrap;strokeWidth=2;" vertex="1" parent="1">
          <mxGeometry x="476" y="320" width="168" height="54" as="geometry" />
        </mxCell>
        <mxCell id="10" value="Next-Generation Firewalls" style="whiteSpace=wrap;strokeWidth=2;" vertex="1" parent="1">
          <mxGeometry x="694" y="320" width="248" height="54" as="geometry" />
        </mxCell>
        <mxCell id="11" value="Firewall Deployment" style="whiteSpace=wrap;strokeWidth=2;" vertex="1" parent="1">
          <mxGeometry x="1179" y="216" width="208" height="54" as="geometry" />
        </mxCell>
        <mxCell id="12" value="Network Perimeter" style="whiteSpace=wrap;strokeWidth=2;" vertex="1" parent="1">
          <mxGeometry x="992" y="320" width="196" height="54" as="geometry" />
        </mxCell>
        <mxCell id="13" value="DMZ" style="whiteSpace=wrap;strokeWidth=2;" vertex="1" parent="1">
          <mxGeometry x="1238" y="320" width="90" height="54" as="geometry" />
        </mxCell>
        <mxCell id="14" value="Internal Segmentation" style="whiteSpace=wrap;strokeWidth=2;" vertex="1" parent="1">
          <mxGeometry x="1378" y="320" width="219" height="54" as="geometry" />
        </mxCell>
        <mxCell id="15" value="Types of VPNs" style="whiteSpace=wrap;strokeWidth=2;" vertex="1" parent="1">
          <mxGeometry x="2018" y="216" width="159" height="54" as="geometry" />
        </mxCell>
        <mxCell id="16" value="Remote Access VPN" style="whiteSpace=wrap;strokeWidth=2;" vertex="1" parent="1">
          <mxGeometry x="1647" y="320" width="199" height="54" as="geometry" />
        </mxCell>
        <mxCell id="17" value="Site-to-Site VPN" style="whiteSpace=wrap;strokeWidth=2;" vertex="1" parent="1">
          <mxGeometry x="1896" y="320" width="175" height="54" as="geometry" />
        </mxCell>
        <mxCell id="18" value="Client-Based VPN" style="whiteSpace=wrap;strokeWidth=2;" vertex="1" parent="1">
          <mxGeometry x="2120" y="320" width="183" height="54" as="geometry" />
        </mxCell>
        <mxCell id="19" value="SSL VPN" style="whiteSpace=wrap;strokeWidth=2;" vertex="1" parent="1">
          <mxGeometry x="2354" y="320" width="116" height="54" as="geometry" />
        </mxCell>
        <mxCell id="20" value="VPN Protocols" style="whiteSpace=wrap;strokeWidth=2;" vertex="1" parent="1">
          <mxGeometry x="2716" y="216" width="159" height="54" as="geometry" />
        </mxCell>
        <mxCell id="21" value="IPSec" style="whiteSpace=wrap;strokeWidth=2;" vertex="1" parent="1">
          <mxGeometry x="2520" y="320" width="98" height="54" as="geometry" />
        </mxCell>
        <mxCell id="22" value="L2TP" style="whiteSpace=wrap;strokeWidth=2;" vertex="1" parent="1">
          <mxGeometry x="2668" y="320" width="95" height="54" as="geometry" />
        </mxCell>
        <mxCell id="23" value="OpenVPN" style="whiteSpace=wrap;strokeWidth=2;" vertex="1" parent="1">
          <mxGeometry x="2812" y="320" width="126" height="54" as="geometry" />
        </mxCell>
        <mxCell id="24" value="WireGuard" style="whiteSpace=wrap;strokeWidth=2;" vertex="1" parent="1">
          <mxGeometry x="2988" y="320" width="136" height="54" as="geometry" />
        </mxCell>
        <mxCell id="25" value="Types of IDS/IPS" style="whiteSpace=wrap;strokeWidth=2;" vertex="1" parent="1">
          <mxGeometry x="3328" y="216" width="175" height="54" as="geometry" />
        </mxCell>
        <mxCell id="26" value="Network-based IDS/IPS" style="whiteSpace=wrap;strokeWidth=2;" vertex="1" parent="1">
          <mxGeometry x="3174" y="320" width="224" height="54" as="geometry" />
        </mxCell>
        <mxCell id="27" value="Host-based IDS/IPS" style="whiteSpace=wrap;strokeWidth=2;" vertex="1" parent="1">
          <mxGeometry x="3448" y="320" width="195" height="54" as="geometry" />
        </mxCell>
        <mxCell id="28" value="Detection Methods" style="whiteSpace=wrap;strokeWidth=2;" vertex="1" parent="1">
          <mxGeometry x="4017" y="216" width="194" height="54" as="geometry" />
        </mxCell>
        <mxCell id="29" value="Signature-based Detection" style="whiteSpace=wrap;strokeWidth=2;" vertex="1" parent="1">
          <mxGeometry x="3693" y="320" width="249" height="54" as="geometry" />
        </mxCell>
        <mxCell id="30" value="Anomaly-based Detection" style="whiteSpace=wrap;strokeWidth=2;" vertex="1" parent="1">
          <mxGeometry x="3993" y="320" width="243" height="54" as="geometry" />
        </mxCell>
        <mxCell id="31" value="Stateful Protocol Analysis" style="whiteSpace=wrap;strokeWidth=2;" vertex="1" parent="1">
          <mxGeometry x="4286" y="320" width="242" height="54" as="geometry" />
        </mxCell>
        <mxCell id="32" value="Response Actions" style="whiteSpace=wrap;strokeWidth=2;" vertex="1" parent="1">
          <mxGeometry x="4713" y="216" width="181" height="54" as="geometry" />
        </mxCell>
        <mxCell id="33" value="Alerting" style="whiteSpace=wrap;strokeWidth=2;" vertex="1" parent="1">
          <mxGeometry x="4577" y="320" width="117" height="54" as="geometry" />
        </mxCell>
        <mxCell id="34" value="Blocking" style="whiteSpace=wrap;strokeWidth=2;" vertex="1" parent="1">
          <mxGeometry x="4744" y="320" width="120" height="54" as="geometry" />
        </mxCell>
        <mxCell id="35" value="Traffic Redirection" style="whiteSpace=wrap;strokeWidth=2;" vertex="1" parent="1">
          <mxGeometry x="4914" y="320" width="193" height="54" as="geometry" />
        </mxCell>
        <mxCell id="36" value="" style="curved=1;startArrow=none;endArrow=block;exitX=0;exitY=0.55;entryX=0.5;entryY=0;" edge="1" parent="1" source="2" target="3">
          <mxGeometry relative="1" as="geometry">
            <Array as="points">
              <mxPoint x="806" y="87" />
            </Array>
          </mxGeometry>
        </mxCell>
        <mxCell id="37" value="" style="curved=1;startArrow=none;endArrow=block;exitX=0.5;exitY=1;entryX=0.5;entryY=0;" edge="1" parent="1" source="2" target="4">
          <mxGeometry relative="1" as="geometry">
            <Array as="points" />
          </mxGeometry>
        </mxCell>
        <mxCell id="38" value="" style="curved=1;startArrow=none;endArrow=block;exitX=1;exitY=0.55;entryX=0.5;entryY=0;" edge="1" parent="1" source="2" target="5">
          <mxGeometry relative="1" as="geometry">
            <Array as="points">
              <mxPoint x="4114" y="87" />
            </Array>
          </mxGeometry>
        </mxCell>
        <mxCell id="39" value="" style="curved=1;startArrow=none;endArrow=block;exitX=0;exitY=0.67;entryX=0.5;entryY=0;" edge="1" parent="1" source="3" target="6">
          <mxGeometry relative="1" as="geometry">
            <Array as="points">
              <mxPoint x="444" y="191" />
            </Array>
          </mxGeometry>
        </mxCell>
        <mxCell id="40" value="" style="curved=1;startArrow=none;endArrow=block;exitX=0;exitY=0.76;entryX=0.5;entryY=0;" edge="1" parent="1" source="6" target="7">
          <mxGeometry relative="1" as="geometry">
            <Array as="points">
              <mxPoint x="94" y="295" />
            </Array>
          </mxGeometry>
        </mxCell>
        <mxCell id="41" value="" style="curved=1;startArrow=none;endArrow=block;exitX=0.18;exitY=1;entryX=0.5;entryY=0;" edge="1" parent="1" source="6" target="8">
          <mxGeometry relative="1" as="geometry">
            <Array as="points">
              <mxPoint x="328" y="295" />
            </Array>
          </mxGeometry>
        </mxCell>
        <mxCell id="42" value="" style="curved=1;startArrow=none;endArrow=block;exitX=0.82;exitY=1;entryX=0.5;entryY=0;" edge="1" parent="1" source="6" target="9">
          <mxGeometry relative="1" as="geometry">
            <Array as="points">
              <mxPoint x="560" y="295" />
            </Array>
          </mxGeometry>
        </mxCell>
        <mxCell id="43" value="" style="curved=1;startArrow=none;endArrow=block;exitX=1;exitY=0.74;entryX=0.5;entryY=0;" edge="1" parent="1" source="6" target="10">
          <mxGeometry relative="1" as="geometry">
            <Array as="points">
              <mxPoint x="818" y="295" />
            </Array>
          </mxGeometry>
        </mxCell>
        <mxCell id="44" value="" style="curved=1;startArrow=none;endArrow=block;exitX=1;exitY=0.63;entryX=0.5;entryY=0;" edge="1" parent="1" source="3" target="11">
          <mxGeometry relative="1" as="geometry">
            <Array as="points">
              <mxPoint x="1283" y="191" />
            </Array>
          </mxGeometry>
        </mxCell>
        <mxCell id="45" value="" style="curved=1;startArrow=none;endArrow=block;exitX=0.02;exitY=1;entryX=0.5;entryY=0;" edge="1" parent="1" source="11" target="12">
          <mxGeometry relative="1" as="geometry">
            <Array as="points">
              <mxPoint x="1090" y="295" />
            </Array>
          </mxGeometry>
        </mxCell>
        <mxCell id="46" value="" style="curved=1;startArrow=none;endArrow=block;exitX=0.5;exitY=1;entryX=0.5;entryY=0;" edge="1" parent="1" source="11" target="13">
          <mxGeometry relative="1" as="geometry">
            <Array as="points" />
          </mxGeometry>
        </mxCell>
        <mxCell id="47" value="" style="curved=1;startArrow=none;endArrow=block;exitX=1;exitY=0.99;entryX=0.5;entryY=0;" edge="1" parent="1" source="11" target="14">
          <mxGeometry relative="1" as="geometry">
            <Array as="points">
              <mxPoint x="1487" y="295" />
            </Array>
          </mxGeometry>
        </mxCell>
        <mxCell id="48" value="" style="curved=1;startArrow=none;endArrow=block;exitX=0;exitY=0.64;entryX=0.5;entryY=0;" edge="1" parent="1" source="4" target="15">
          <mxGeometry relative="1" as="geometry">
            <Array as="points">
              <mxPoint x="2097" y="191" />
            </Array>
          </mxGeometry>
        </mxCell>
        <mxCell id="49" value="" style="curved=1;startArrow=none;endArrow=block;exitX=0;exitY=0.72;entryX=0.5;entryY=0;" edge="1" parent="1" source="15" target="16">
          <mxGeometry relative="1" as="geometry">
            <Array as="points">
              <mxPoint x="1746" y="295" />
            </Array>
          </mxGeometry>
        </mxCell>
        <mxCell id="50" value="" style="curved=1;startArrow=none;endArrow=block;exitX=0.13;exitY=1;entryX=0.5;entryY=0;" edge="1" parent="1" source="15" target="17">
          <mxGeometry relative="1" as="geometry">
            <Array as="points">
              <mxPoint x="1983" y="295" />
            </Array>
          </mxGeometry>
        </mxCell>
        <mxCell id="51" value="" style="curved=1;startArrow=none;endArrow=block;exitX=0.87;exitY=1;entryX=0.5;entryY=0;" edge="1" parent="1" source="15" target="18">
          <mxGeometry relative="1" as="geometry">
            <Array as="points">
              <mxPoint x="2212" y="295" />
            </Array>
          </mxGeometry>
        </mxCell>
        <mxCell id="52" value="" style="curved=1;startArrow=none;endArrow=block;exitX=1;exitY=0.74;entryX=0.5;entryY=0;" edge="1" parent="1" source="15" target="19">
          <mxGeometry relative="1" as="geometry">
            <Array as="points">
              <mxPoint x="2412" y="295" />
            </Array>
          </mxGeometry>
        </mxCell>
        <mxCell id="53" value="" style="curved=1;startArrow=none;endArrow=block;exitX=1;exitY=0.62;entryX=0.5;entryY=0;" edge="1" parent="1" source="4" target="20">
          <mxGeometry relative="1" as="geometry">
            <Array as="points">
              <mxPoint x="2795" y="191" />
            </Array>
          </mxGeometry>
        </mxCell>
        <mxCell id="54" value="" style="curved=1;startArrow=none;endArrow=block;exitX=0;exitY=0.84;entryX=0.5;entryY=0;" edge="1" parent="1" source="20" target="21">
          <mxGeometry relative="1" as="geometry">
            <Array as="points">
              <mxPoint x="2569" y="295" />
            </Array>
          </mxGeometry>
        </mxCell>
        <mxCell id="55" value="" style="curved=1;startArrow=none;endArrow=block;exitX=0.24;exitY=1;entryX=0.5;entryY=0;" edge="1" parent="1" source="20" target="22">
          <mxGeometry relative="1" as="geometry">
            <Array as="points">
              <mxPoint x="2715" y="295" />
            </Array>
          </mxGeometry>
        </mxCell>
        <mxCell id="56" value="" style="curved=1;startArrow=none;endArrow=block;exitX=0.76;exitY=1;entryX=0.5;entryY=0;" edge="1" parent="1" source="20" target="23">
          <mxGeometry relative="1" as="geometry">
            <Array as="points">
              <mxPoint x="2875" y="295" />
            </Array>
          </mxGeometry>
        </mxCell>
        <mxCell id="57" value="" style="curved=1;startArrow=none;endArrow=block;exitX=1;exitY=0.79;entryX=0.5;entryY=0;" edge="1" parent="1" source="20" target="24">
          <mxGeometry relative="1" as="geometry">
            <Array as="points">
              <mxPoint x="3056" y="295" />
            </Array>
          </mxGeometry>
        </mxCell>
        <mxCell id="58" value="" style="curved=1;startArrow=none;endArrow=block;exitX=0;exitY=0.58;entryX=0.5;entryY=0;" edge="1" parent="1" source="5" target="25">
          <mxGeometry relative="1" as="geometry">
            <Array as="points">
              <mxPoint x="3416" y="191" />
            </Array>
          </mxGeometry>
        </mxCell>
        <mxCell id="59" value="" style="curved=1;startArrow=none;endArrow=block;exitX=0.12;exitY=1;entryX=0.5;entryY=0;" edge="1" parent="1" source="25" target="26">
          <mxGeometry relative="1" as="geometry">
            <Array as="points">
              <mxPoint x="3286" y="295" />
            </Array>
          </mxGeometry>
        </mxCell>
        <mxCell id="60" value="" style="curved=1;startArrow=none;endArrow=block;exitX=0.89;exitY=1;entryX=0.5;entryY=0;" edge="1" parent="1" source="25" target="27">
          <mxGeometry relative="1" as="geometry">
            <Array as="points">
              <mxPoint x="3545" y="295" />
            </Array>
          </mxGeometry>
        </mxCell>
        <mxCell id="61" value="" style="curved=1;startArrow=none;endArrow=block;exitX=0.5;exitY=1;entryX=0.5;entryY=0;" edge="1" parent="1" source="5" target="28">
          <mxGeometry relative="1" as="geometry">
            <Array as="points" />
          </mxGeometry>
        </mxCell>
        <mxCell id="62" value="" style="curved=1;startArrow=none;endArrow=block;exitX=0;exitY=0.81;entryX=0.5;entryY=0;" edge="1" parent="1" source="28" target="29">
          <mxGeometry relative="1" as="geometry">
            <Array as="points">
              <mxPoint x="3818" y="295" />
            </Array>
          </mxGeometry>
        </mxCell>
        <mxCell id="63" value="" style="curved=1;startArrow=none;endArrow=block;exitX=0.5;exitY=1;entryX=0.5;entryY=0;" edge="1" parent="1" source="28" target="30">
          <mxGeometry relative="1" as="geometry">
            <Array as="points" />
          </mxGeometry>
        </mxCell>
        <mxCell id="64" value="" style="curved=1;startArrow=none;endArrow=block;exitX=1;exitY=0.82;entryX=0.5;entryY=0;" edge="1" parent="1" source="28" target="31">
          <mxGeometry relative="1" as="geometry">
            <Array as="points">
              <mxPoint x="4406" y="295" />
            </Array>
          </mxGeometry>
        </mxCell>
        <mxCell id="65" value="" style="curved=1;startArrow=none;endArrow=block;exitX=1.01;exitY=0.58;entryX=0.5;entryY=0;" edge="1" parent="1" source="5" target="32">
          <mxGeometry relative="1" as="geometry">
            <Array as="points">
              <mxPoint x="4804" y="191" />
            </Array>
          </mxGeometry>
        </mxCell>
        <mxCell id="66" value="" style="curved=1;startArrow=none;endArrow=block;exitX=0.02;exitY=1;entryX=0.5;entryY=0;" edge="1" parent="1" source="32" target="33">
          <mxGeometry relative="1" as="geometry">
            <Array as="points">
              <mxPoint x="4635" y="295" />
            </Array>
          </mxGeometry>
        </mxCell>
        <mxCell id="67" value="" style="curved=1;startArrow=none;endArrow=block;exitX=0.5;exitY=1;entryX=0.5;entryY=0;" edge="1" parent="1" source="32" target="34">
          <mxGeometry relative="1" as="geometry">
            <Array as="points" />
          </mxGeometry>
        </mxCell>
        <mxCell id="68" value="" style="curved=1;startArrow=none;endArrow=block;exitX=1;exitY=0.92;entryX=0.5;entryY=0;" edge="1" parent="1" source="32" target="35">
          <mxGeometry relative="1" as="geometry">
            <Array as="points">
              <mxPoint x="5010" y="295" />
            </Array>
          </mxGeometry>
        </mxCell>
      </root>
    </mxGraphModel>
  </diagram>
  <diagram id="bdjEUSVZrqn4xoWumv7_" name="Page-2">
    <mxGraphModel dx="717" dy="526" grid="0" gridSize="10" guides="1" tooltips="1" connect="1" arrows="1" fold="1" page="0" pageScale="1" pageWidth="850" pageHeight="1100" math="0" shadow="0">
      <root>
        <mxCell id="0" />
        <mxCell id="1" parent="0" />
      </root>
    </mxGraphModel>
  </diagram>
</mxfile>
